#!OML:ASF X:\für Bonn\!DataBase\2005_08_11_Bastian_Final\c3d\Bastian.ASF
:FULLY-SPECIFIED
:DEGREES
35
root 2.56789 22.626 5.09121 718.759 9.6313 -4.08561
lowerback 4.79339 -3.83153 -1.05693
upperback 2.72608 -5.13869 0.165069
thorax 0.230936 -2.58166 0.984066
lowerneck -6.66705 -2.84398 -1.92072
upperneck 3.18527 -4.04293 8.0113
head 2.43362 -1.80975 2.78447
rclavicle 7.07673e-014 -9.54166e-015
rhumerus -48.4339 16.5898 -81.8913
rradius 116.069
rwrist 1.17696
rhand -10.5455 25.3755
rfingers 7.12502
rthumb 15.4582 -4.02639
lclavicle 7.07673e-014 -9.54166e-015
lhumerus -34.0369 -3.72432 72.946
lradius 124.022
lwrist 213.651
lhand -28.5414 14.2379
lfingers 7.12502
lthumb -1.90877 44.2092
rfemur -14.4181 -0.653556 24.6283
rtibia 46.7461
rfoot 0.593957 -7.87688
rtoes -52.35
lfemur -19.3331 6.2714 -11.6587
ltibia 57.9712
lfoot 13.7586 -1.95763
ltoes -24.4876
36
root 2.5553 22.738 5.23899 719.035 9.65491 -4.07834
lowerback 5.34685 -3.75633 -0.948905
upperback 2.80596 -5.03691 0.155114
thorax -0.00683477 -2.52783 0.947616
lowerneck -7.05517 -2.93742 -1.91232
upperneck 3.2712 -4.18514 8.17317
head 2.5483 -1.86531 2.83001
rclavicle -3.66758e-014 7.95139e-016
rhumerus -48.9524 15.8801 -82.1688
rradius 115.766
rwrist 1.34804
rhand -10.8403 25.7586
rfingers 7.12502
rthumb 15.1744 -3.66503
lclavicle -3.66758e-014 7.95139e-016
lhumerus -34.9559 -3.56743 73.0811
lradius 124.296
lwrist 213.264
lhand -28.882 13.6359
lfingers 7.12502
lthumb -2.23778 43.6039
rfemur -15.0641 -0.844554 24.4507
rtibia 45.8452
rfoot -0.967762 -8.36859
rtoes -52.1661
lfemur -20.4884 6.67308 -11.9767
ltibia 57.8033
lfoot 12.9944 -2.83852
ltoes -25.8942
37
root 2.54394 22.8331 5.389 719.308 9.62977 -4.0985
lowerback 5.87753 -3.65812 -0.780614
upperback 2.85105 -4.90026 0.139648
thorax -0.273303 -2.45572 0.868632
lowerneck -7.26606 -3.03936 -1.97678
upperneck 3.20074 -4.32739 8.44557
head 2.58443 -1.9258 2.92705
rclavicle -1.23246e-014 1.74931e-014
rhumerus -49.5467 15.1964 -82.5176
rradius 115.241
rwrist 1.32187
rhand -10.8497 25.8624
rfingers 7.12502
rthumb 15.1653 -3.5619
lclavicle -1.23246e-014 1.74931e-014
lhumerus -35.9417 -3.56265 73.2649
lradius 124.195
lwrist 212.687
lhand -28.7737 13.6972
lfingers 7.12502
lthumb -2.13313 43.6663
rfemur -15.634 -0.950974 24.2911
rtibia 44.867
rfoot -2.9536 -8.54223
rtoes -51.7636
lfemur -21.5808 7.05477 -12.2629
ltibia 57.5324
lfoot 12.1933 -3.75175
ltoes -26.7329
38
root 2.53288 22.9178 5.54053 719.631 9.58254 -4.08883
lowerback 6.34541 -3.56644 -0.664145
upperback 2.85639 -4.77324 0.143807
thorax -0.538637 -2.38917 0.833929
lowerneck -7.34487 -3.13635 -2.03891
upperneck 2.97501 -4.44687 8.64052
head 2.53976 -1.98389 2.9979
rclavicle 9.93923e-015 1.03368e-014
rhumerus -50.164 14.6956 -82.9347
rradius 114.486
rwrist 0.907257
rhand -11.2247 26.2073
rfingers 7.12502
rthumb 14.804 -3.24395
lclavicle 9.93923e-015 1.03368e-014
lhumerus -36.9452 -3.5474 73.4617
lradius 123.786
lwrist 212.059
lhand -28.4772 14.0611
lfingers 7.12502
lthumb -1.84676 44.0329
rfemur -16.2115 -1.04395 24.1072
rtibia 43.8402
rfoot -4.64246 -8.47379
rtoes -51.9136
lfemur -22.6739 7.40176 -12.5993
ltibia 57.1705
lfoot 11.4128 -4.70202
ltoes -26.9663
39
root 2.52245 22.9886 5.69462 719.93 9.51571 -4.04646
lowerback 6.82575 -3.47233 -0.579845
upperback 2.81586 -4.64406 0.151104
thorax -0.85458 -2.32154 0.820957
lowerneck -7.26238 -3.2352 -2.12599
upperneck 2.62788 -4.55403 8.7899
head 2.42302 -2.04437 3.05879
rclavicle 1.76918e-014 6.36111e-015
rhumerus -50.8827 14.2068 -83.3246
rradius 113.611
rwrist 0.589756
rhand -11.3462 26.3512
rfingers 7.12502
rthumb 14.687 -3.10862
lclavicle 1.76918e-014 6.36111e-015
lhumerus -38.016 -3.57848 73.7348
lradius 122.939
lwrist 211.455
lhand -28.0275 15.1476
lfingers 7.12502
lthumb -1.4125 45.1226
rfemur -16.7533 -1.06998 23.8952
rtibia 42.8138
rfoot -6.05448 -8.37279
rtoes -52.6671
lfemur -23.6778 7.72881 -12.972
ltibia 56.7267
lfoot 10.6032 -5.77827
ltoes -27.5758
